<?xml version="1.0" encoding="utf-8"?>
<!-- Generator: Adobe Illustrator 18.1.1, SVG Export Plug-In . SVG Version: 6.00 Build 0)  -->
<svg version="1.1" id="Layer_1" xmlns="http://www.w3.org/2000/svg" xmlns:xlink="http://www.w3.org/1999/xlink" x="0px" y="0px"
	 viewBox="221 -249 512 512" enable-background="new 221 -249 512 512" xml:space="preserve">
<g>
	<g>
		<path fill="#34BFDE" d="M712.3-13.7H241.7C230.3-13.7,221-4.4,221,7s9.3,20.7,20.7,20.7h470.6c11.4,0,20.7-9.3,20.7-20.7
			C733-4.4,723.7-13.7,712.3-13.7z"/>
	</g>
</g>
<g>
	<g>
		<path fill="#34BFDE" d="M712.3-170.6H241.7c-11.4,0-20.7,9.3-20.7,20.7s9.3,20.7,20.7,20.7h470.6c11.4,0,20.7-9.3,20.7-20.7
			S723.7-170.6,712.3-170.6z"/>
	</g>
</g>
<g>
	<g>
		<path fill="#34BFDE" d="M712.3,143.2H241.7c-11.4,0-20.7,9.3-20.7,20.7s9.3,20.7,20.7,20.7h470.6c11.4,0,20.7-9.3,20.7-20.7
			S723.7,143.2,712.3,143.2z"/>
	</g>
</g>
</svg>
